# xmcd
#
# Track frame offsets:
# 150
# 17863
# 35320
# 50719
# 65788
#
# Disc length: 1191 seconds
#
#
# Revision: 0
# Processed by: cddbd v1.5.1PL0 Copyright (c) Steve Scherf et al.
# Submitted via: FreeRIP 2.942 
#
DISCID=4304a505
DTITLE=R. Kelly ft. The Game - Playa's Only
DYEAR=2005
DGENRE=R&B
TTITLE0=Playa's Only (Album Version)
TTITLE1=Playa's Only (Acappella)
TTITLE2=Trapped In The Closet (Chapter 1 0f 5)
TTITLE3=Trapped In The Closet (Chapter 2 Of 5)
TTITLE4=In The Kitchen
EXTD=http://popartiesten-urban.pagina.nl\n\nwww.r-kelly.com
EXTT0=
EXTT1=
EXTT2=
EXTT3=
EXTT4=
PLAYORDER=
